<?xml version="1.0" standalone="no"?>
<!DOCTYPE svg PUBLIC "-//W3C//DTD SVG 20010904//EN"
 "http://www.w3.org/TR/2001/REC-SVG-20010904/DTD/svg10.dtd">
<svg version="1.0" xmlns="http://www.w3.org/2000/svg"
 width="288.000000pt" height="288.000000pt" viewBox="0 0 288.000000 288.000000"
 preserveAspectRatio="xMidYMid meet">
<metadata>
Created by potrace 1.14, written by Peter Selinger 2001-2017
</metadata>
<g transform="translate(0.000000,288.000000) scale(0.100000,-0.100000)"
fill="#000000" stroke="none">
<path d="M1766 2872 c-3 -2 -178 -4 -390 -4 -212 0 -386 -1 -387 -2 0 0 -3
-108 -6 -238 l-4 -238 695 0 696 0 1 -77 c1 -115 9 -377 12 -379 1 -1 106 -5
234 -7 l231 -5 4 35 c6 54 2 373 -6 423 -14 92 -17 106 -33 160 -42 147 -117
235 -243 284 -25 10 -55 20 -68 22 -12 2 -50 9 -85 16 -58 11 -641 20 -651 10z"/>
<path d="M370 2805 c-159 -33 -262 -150 -304 -345 -9 -41 -18 -97 -21 -125 -6
-67 -6 -1667 0 -1775 20 -335 128 -485 385 -535 63 -13 264 -18 750 -19 494
-1 649 3 711 19 l27 7 -1 219 c0 152 -3 219 -11 220 -11 1 -223 4 -961 13
-220 2 -405 5 -411 5 -7 1 -10 119 -11 368 -1 203 -3 727 -4 1166 l-3 798 -45
-2 c-25 -2 -71 -8 -101 -14z"/>
<path d="M983 1417 c-6 -10 -4 -437 2 -447 2 -4 48 -5 102 -4 153 5 1063 6
1113 1 157 -15 179 -20 184 -36 2 -9 3 -219 3 -468 l-2 -452 25 5 c82 19 181
49 220 69 99 50 173 155 207 292 14 58 16 139 17 553 l1 485 -300 2 c-995 8
-1567 8 -1572 0z"/>
</g>
</svg>
